<svg xmlns="http://www.w3.org/2000/svg" version="1.0" viewBox="0 0 341 148"><path fill="#333" d="M180.4 2.1c-4.1 1.2-7.6 5.1-7.2 8.1.2 1.8 1 2.4 3.7 2.6 1.8.2 4.6-.2 6.2-.8 2.2-.9 4.1-.9 8.1 0 9.7 2.2 9.4 1.5 3.6 8.3-13.3 15.3-13.3 15.3-16.2 13.9-2-.9-2.6-1.9-2.6-4.2 0-1.9-1.1-4.2-2.9-6.2-2.7-3-3.4-3.3-8.8-3.3-9.9.1-19.9 7-22.3 15.6-.8 2.6-.6 4.1.8 7l1.8 3.6-4.3 4.8c-4.9 5.7-4.9 5.7 4.2 11.2 5.3 3.1 6.5 4.3 6.5 6.4 0 5.7 7.5 8.2 12.8 4.2 2.1-1.6 2.7-2.8 2.7-5.9 0-3.1-.5-4.1-2.7-5.3-2.2-1.3-3.3-1.4-5.9-.4-2.9 1.1-3.7.9-9.5-2.4-6.7-3.9-6.9-4.7-2.4-8.8 1.5-1.3 3.8-2 7.4-2.1 2.9-.1 6.6-.9 8.3-1.8 3-1.5 3.4-1.4 12.7 2.7 8.8 3.9 9.6 4.4 10.2 7.5.4 1.9 1.3 3.6 2.1 3.9 1.4.6 26.8-8.1 29.1-9.9 2.7-2.3 1.4-3-17.3-9.5-5.5-1.9-10.3-3.8-10.8-4.2-.4-.4 4-6.1 9.8-12.7 5.8-6.5 10.3-12.3 10.2-12.9-.3-1-2.1-1.5-12.4-3.5-5-1-6.3-1.7-6.3-3.1 0-1-.9-2.3-1.9-2.9-2.2-1.1-2.5-1.1-6.7.1zm-14.1 23c3 1.6 3.7 2.8 3.7 6.6 0 6.2-7.9 12.3-15.9 12.3-11.3 0-10.4-12.8 1.4-18.1 4.7-2.2 7.8-2.4 10.8-.8zM189 43.7c8.3 3.1 14.7 5.9 14.3 6.3-.5.4-3.3 1.6-6.4 2.7l-5.5 2.1-1.1-2.7c-.8-2.1-2.9-3.4-10.7-6.5-9.3-3.7-9.6-3.9-8-5.7.9-1.1 1.9-1.9 2-1.9.2 0 7.2 2.6 15.4 5.7zm-27.3 24c.6 1.7-3.6 3.8-5 2.4-.7-.7-.6-1.5.3-2.6 1.5-1.8 4.1-1.7 4.7.2zm119.4 13.7c-.8.9-1.1 7.3-.9 20.6.3 17.1.5 19.4 2.1 20.4 1.2.8 2.2.8 3.5 0 1.4-.9 1.8-3 2.2-11.2.6-11.1 2.1-14.2 7-14.2 4.4 0 5.3 2.1 5.8 14.1.3 6 .9 11.2 1.4 11.5.5.3 2 .3 3.4 0 2.4-.6 2.4-.7 2.4-13.1 0-11.4-.2-12.6-2.3-15-3-3.6-8.9-4.3-13.9-1.7l-3.8 2v-6.2c0-3.5-.5-6.7-1.2-7.4-1.6-1.6-4.3-1.5-5.7.2zm44.3-.6c-.6.4-1.5 3-1.9 5.9-.5 3.8-1.1 5.2-2.6 5.6-2.5.7-2.5 4.7 0 5.4 1.6.4 1.9 1.8 2.4 10.3.3 5.3 1 10.7 1.6 11.8 2.3 4.4 14.3 3.9 14.9-.6.3-2-.1-2.2-3.6-2.2-4.9 0-5.2-.7-5.2-11.1 0-7.7.1-7.9 2.4-7.9 3.3 0 5.3-2.5 3.6-4.5-.7-.8-2.3-1.5-3.6-1.5-2.2 0-2.4-.4-2.4-4.8 0-6.1-2.3-8.6-5.6-6.4zm-207.7 2c-1 1-1.7 2.8-1.7 3.9 0 2.3 3 5.3 5.3 5.3 2.1 0 5.7-3.5 5.7-5.5 0-2.1-3.6-5.5-5.8-5.5-1.1 0-2.6.8-3.5 1.8zM1 102.4V123h11.3c12.9 0 17.8-1.6 21.9-7.1 6.3-8.5 6.3-18.3 0-26.8-3.6-4.9-8-6.3-21.4-6.9L1 81.7v20.7zm20.4-11.2c5 2.2 7.4 9 5.6 15.7-1.4 5.4-5.2 8.3-10.4 7.9l-4.1-.3-.3-10.9c-.1-6.1 0-11.6.2-12.3.7-1.6 5.6-1.7 9-.1zM174 102.3v20.4l13.7.6c10.3.5 13.9.3 14.5-.6.4-.7.8-3.3.8-5.9V112l-9.2.7-9.1.6.7-15.6.6-15.7h-12v20.3zm40.8-19.2c-2.8 1.6-2.3 6.7.6 8 3.6 1.7 7.4.4 8.2-2.7 1.2-4.7-4.2-8-8.8-5.3zM52 85.4c-2.8 3.5 1.1 9.3 4.8 7C60.3 90.2 59 84 55 84c-1 0-2.3.7-3 1.4zm95.2 1.5c-.6 1.6-2.4 3.9-4.1 5.2-3.8 2.8-4.5 7.9-1.1 7.9 1.8 0 2 .7 2 8.4 0 6.9.4 8.8 2 10.9 2.4 3 8.7 4.4 14 3 3-.8 3.5-1.4 3.8-4.1.3-3.1.2-3.2-2.2-2.1-3.4 1.6-7.2.4-8-2.3-.3-1.3-.6-4.9-.6-8.1V100h5c4.9 0 5-.1 5-3s-.1-3-5-3h-5v-5c0-4.6-.2-5-2.4-5-1.8 0-2.7.8-3.4 2.9zM96 93.5c-2.3 2.3-2.9 2.4-5.8 1.4-11.1-3.8-22.7 6.3-16.3 14.2 1.9 2.3 1.9 2.4-.5 5.2-2.9 3.5-3 4.9-.4 7.2 1.9 1.7 1.9 1.8-.5 3.7-4.6 3.6-2.5 7.6 5 9.7 11.7 3.2 26.5-1.4 26.5-8.2 0-4.1-4-6.7-12.1-7.8-4.1-.6-8.4-1.2-9.7-1.5-4.2-.9-1.8-2.5 4.1-2.8 5-.2 6.3-.7 8.9-3.4 3.2-3.1 3.9-6.7 2.5-11-.7-1.9-.5-2.2 1.6-2.2 3.3 0 5.4-2.6 4-4.8-1.6-2.6-4.6-2.5-7.3.3zm-8.3 7.3c2.7 1.7 1.9 7-1.2 7.8-3.1.8-5.5-1-5.5-4 0-3.8 3.6-5.8 6.7-3.8zm.2 24.2c4.6 0 8.4 2.4 6.1 4-2.2 1.5-11.3 1.2-13.5-.4-1.7-1.2-1.7-1.6-.6-3 .8-.9 2.1-1.4 2.8-1.1.8.3 3.1.5 5.2.5zm155.6-32.1c-10.3 4.5-10.6 23.5-.5 28.9 3.6 1.9 10.6.9 13.7-1.9l2.6-2.4-.8 4c-.3 2.2-1.4 4.8-2.2 5.7-2.4 2.7-8.5 2.3-12.1-.7-3.4-2.9-5.4-3.1-7.2-1-1.1 1.3-1 2.1.7 4.3 2.8 3.7 8.5 5.5 15.6 4.8 11.9-1.2 12.8-3 12.5-25.3l-.3-16.8H263c-1.5 0-2.9.8-3.5 2.2l-1.1 2.2-2.1-2.1c-2.3-2.2-9.5-3.3-12.8-1.9zm12.3 7.1c5.7 5.3 2.5 16.9-4.6 17-3.7 0-5.9-1.7-7.2-5.5-3.1-9.4 5.3-17.6 11.8-11.5zm-135.3-5c-1.1.5-3.5.9-5.2.9-3 .1-3.3.4-3.3 3.1 0 2.5.4 3 2.5 3 2.6 0 2.6.1 2.3 7.2-.3 6.7-.5 7.3-2.5 7.6-1.8.3-2.3 1-2.3 3.3v2.9h18v-3c0-2.3-.4-3-2-3-1.9 0-2-.7-2-11.5 0-12.4-.2-12.8-5.5-10.5zm92.3 14 .3 14h9.9v-9.4c0-5.1.3-11.4.6-14l.7-4.6h-11.8l.3 14zm-159-10.2c-2.7.2-4.8.7-4.8 1.3 0 .5.5.9 1 .9.6 0 1 4 1 10s-.4 10-1 10c-.5 0-1 .4-1 1s2.8 1 6.5 1 6.5-.4 6.5-1-.7-1-1.5-1c-1.2 0-1.5-2.2-1.7-11.3l-.3-11.2-4.7.3z"/><path fill="#4F4F4F" fill-opacity=".27" d="M12.4 102.5c0 6 .1 8.4.3 5.2.2-3.2.2-8.1 0-11-.2-2.9-.3-.3-.3 5.8zm47 7c0 6.6.1 9.2.3 5.7.2-3.4.2-8.8 0-12-.2-3.1-.3-.3-.3 6.3z"/><path fill="#4F4F4F" fill-opacity=".47" d="M266.4 109.5c0 7.7.2 10.7.3 6.7.2-4 .2-10.3 0-14-.2-3.7-.3-.4-.3 7.3z"/><path fill="#666" d="M125.2 137.2c-1.5 1.5-1.5 4.5 0 5.4.8.5.6 1-.5 1.9-2.4 1.7-.5 4 2.2 2.6 2.2-1.2 2.7-3.6 1.1-6.1-.6-.9-.5-1.7.2-2.1 1.1-.7.3-2.9-1.1-2.9-.4 0-1.2.5-1.9 1.2zm86.1 4.8c0 5.2.3 6 1.9 6 1.5 0 1.8-.8 1.8-6s-.3-6-1.8-6c-1.6 0-1.9.8-1.9 6zm8.7-4.5c0 .8.7 1.5 1.5 1.5 1.1 0 1.5 1.2 1.5 4.5s.4 4.5 1.5 4.5 1.5-1.2 1.5-4.5.4-4.5 1.5-4.5c.8 0 1.5-.7 1.5-1.5 0-1.1-1.2-1.5-4.5-1.5s-4.5.4-4.5 1.5zm-84.8 3.7c-3.1 3.1 1.2 8.1 5.5 6.3 1.5-.7 1.3-.9-1.2-1.5l-3-.8 2.8-.1c1.9-.1 2.7-.6 2.7-2 0-2.9-4.5-4.2-6.8-1.9zm11.8 2.9c0 2.8.4 3.9 1.5 3.9.9 0 1.5-.9 1.5-2.5s.6-2.5 1.5-2.5c3 0 1.5-2.7-1.5-2.8-2.8-.1-3 .1-3 3.9zm10-2.3c0 2.3 2.8 6.2 4.4 6.2 1.9 0 4.6-3.4 4.6-5.8 0-2.8-2.8-2.9-3.2-.2-.4 2.9-2.2 3-2.6.2-.4-2.6-3.2-3-3.2-.4zm14 2.2c0 2.9.4 4 1.5 4s1.5-1.1 1.5-4-.4-4-1.5-4-1.5 1.1-1.5 4zm9.2-2.8c-2.7 2.7-.6 6.8 3.5 6.8 1.4 0 2.3-.6 2.3-1.5 0-.8-.9-1.5-2-1.5s-2-.5-2-1c0-.6.9-1 2-1s2-.7 2-1.5c0-1.8-4.1-2-5.8-.3zm11 0c-3.1 3.1 1.2 8.1 5.5 6.3 1.5-.7 1.3-.9-1.2-1.5l-3-.8 2.8-.1c1.9-.1 2.7-.6 2.7-2 0-2.9-4.5-4.2-6.8-1.9z"/></svg>